<svg width="123" height="27" viewBox="0 0 123 27" fill="none" xmlns="http://www.w3.org/2000/svg">
<path d="M29.129 5.24805H35.441C36.545 5.24805 37.553 5.42405 38.465 5.77605C39.377 6.12805 40.153 6.65605 40.793 7.36005C41.433 8.04805 41.929 8.92005 42.281 9.97605C42.633 11.016 42.809 12.232 42.809 13.624C42.809 15.016 42.633 16.24 42.281 17.296C41.929 18.336 41.433 19.208 40.793 19.912C40.153 20.6 39.377 21.12 38.465 21.472C37.553 21.824 36.545 22 35.441 22H29.129V5.24805ZM35.441 18.76C36.529 18.76 37.385 18.456 38.009 17.848C38.633 17.24 38.945 16.264 38.945 14.92V12.328C38.945 10.984 38.633 10.008 38.009 9.40005C37.385 8.79205 36.529 8.48805 35.441 8.48805H32.777V18.76H35.441Z" fill="white"/>
<path d="M43.937 22V9.40002H47.489V12.136H47.609C47.673 11.784 47.785 11.448 47.945 11.128C48.105 10.792 48.313 10.496 48.569 10.24C48.841 9.98402 49.161 9.78402 49.529 9.64002C49.897 9.48002 50.329 9.40002 50.825 9.40002H51.449V12.712H50.561C49.521 12.712 48.745 12.848 48.233 13.12C47.737 13.392 47.489 13.896 47.489 14.632V22H43.937Z" fill="white"/>
<path d="M62.281 22C61.641 22 61.257 21.688 60.825 21.288C60.409 20.888 60.145 20.352 60.033 19.68H59.889C59.697 20.496 59.273 21.12 58.617 21.552C57.961 21.968 57.153 22.176 56.193 22.176C54.929 22.176 53.961 21.84 53.289 21.168C52.617 20.496 52.281 19.608 52.281 18.504C52.281 17.176 52.761 16.192 53.721 15.552C54.697 14.896 56.017 14.568 57.681 14.568H59.673V13.776C59.673 13.168 59.513 12.688 59.193 12.336C58.873 11.968 58.337 11.784 57.585 11.784C56.881 11.784 56.321 11.936 55.905 12.24C55.489 12.544 55.145 12.888 54.873 13.272L52.761 11.4C53.273 10.648 53.913 10.064 54.681 9.648C55.465 9.216 56.521 9 57.849 9C59.641 9 60.985 9.392 61.881 10.176C62.777 10.96 63.225 12.104 63.225 13.608V19.128H64.401V22H62.281ZM57.513 19.704C58.105 19.704 58.609 19.576 59.025 19.32C59.457 19.064 59.673 18.648 59.673 18.072V16.584H57.945C56.553 16.584 55.857 17.056 55.857 18V18.36C55.857 18.824 56.001 19.168 56.289 19.392C56.577 19.6 56.985 19.704 57.513 19.704Z" fill="white"/>
<path d="M66.057 11.92H64.281V9.16H66.057V7.672C66.057 6.456 66.377 5.544 67.017 4.936C67.657 4.312 68.593 4 69.825 4H72.129V6.76H69.609V9.16H72.129V12H69.609V22H66.057V11.92Z" fill="white"/>
<path d="M77.801 22.008C76.569 22.008 75.633 21.696 74.993 21.072C74.369 20.448 74.057 19.536 74.057 18.336V12H71.781L71.8084 9.1663C71.8084 9.1663 72.5003 9.1663 72.9803 9.1663C73.4603 9.1663 73.6404 9.1663 74.153 9.072C74.417 9.02344 74.417 8.496 74.417 8.064V6H77.609V9.408H80.105V12.168H77.609V19.248H79.913V22.008H77.801Z" fill="white"/>
<path d="M81.281 22V5H84.929V18.512H91.313V22H81.281Z" fill="white"/>
<path d="M102.281 22C101.641 22 101.257 21.688 100.825 21.288C100.409 20.888 100.145 20.352 100.033 19.68H99.889C99.697 20.496 99.273 21.12 98.617 21.552C97.961 21.968 97.153 22.176 96.193 22.176C94.929 22.176 93.961 21.84 93.289 21.168C92.617 20.496 92.281 19.608 92.281 18.504C92.281 17.176 92.761 16.192 93.721 15.552C94.697 14.896 96.017 14.568 97.681 14.568H99.673V13.776C99.673 13.168 99.513 12.688 99.193 12.336C98.873 11.968 98.337 11.784 97.585 11.784C96.881 11.784 96.321 11.936 95.905 12.24C95.489 12.544 95.145 12.888 94.873 13.272L92.761 11.4C93.273 10.648 93.913 10.064 94.681 9.648C95.465 9.216 96.521 9 97.849 9C99.641 9 100.985 9.392 101.881 10.176C102.777 10.96 103.225 12.104 103.225 13.608V19.128H104.401V22H102.281ZM97.513 19.704C98.105 19.704 98.609 19.576 99.025 19.32C99.457 19.064 99.673 18.648 99.673 18.072V16.584H97.945C96.553 16.584 95.857 17.056 95.857 18V18.36C95.857 18.824 96.001 19.168 96.289 19.392C96.577 19.6 96.985 19.704 97.513 19.704Z" fill="white"/>
<path d="M105.281 4H108.833V11.272H108.953C109.129 10.568 109.529 9.992 110.153 9.544C110.793 9.096 111.521 8.872 112.337 8.872C113.937 8.872 115.145 9.432 115.961 10.552C116.777 11.672 117.185 13.304 117.185 15.448C117.185 17.592 116.777 19.232 115.961 20.368C115.145 21.488 113.937 22.048 112.337 22.048C111.921 22.048 111.529 21.984 111.161 21.856C110.793 21.744 110.457 21.584 110.153 21.376C109.865 21.152 109.617 20.896 109.409 20.608C109.201 20.304 109.049 19.984 108.953 19.648H108.833V22H105.281V4ZM111.161 19.168C111.833 19.168 112.385 18.936 112.817 18.472C113.265 17.992 113.489 17.352 113.489 16.552V14.368C113.489 13.568 113.265 12.936 112.817 12.472C112.385 11.992 111.833 11.752 111.161 11.752C110.489 11.752 109.929 11.92 109.481 12.256C109.049 12.576 108.833 13.024 108.833 13.6V17.32C108.833 17.896 109.049 18.352 109.481 18.688C109.929 19.008 110.489 19.168 111.161 19.168Z" fill="white"/>
<path d="M120.142 21.8284C119.556 21.8284 119.07 21.6492 118.684 21.2915C118.314 20.9178 118.129 20.4587 118.129 19.914C118.129 19.3693 118.314 18.918 118.684 18.5603C119.07 18.1866 119.556 18 120.142 18C120.712 18 121.183 18.1866 121.553 18.5603C121.923 18.918 122.108 19.3693 122.108 19.914C122.108 20.4587 121.923 20.9178 121.553 21.2915C121.183 21.6492 120.712 21.8284 120.142 21.8284Z" fill="#760EC8"/>
<path d="M12.017 14.2917V1L21.6836 5.83333L12.017 10.6667" stroke="white" stroke-width="2" stroke-linecap="round" stroke-linejoin="round"/>
<path d="M22.3482 10.9446C22.9912 12.9264 23.0514 15.0512 22.5215 17.0663C21.9917 19.0813 20.8941 20.9018 19.3594 22.311C17.8248 23.7202 15.9176 24.6589 13.8648 25.0154C11.8119 25.3719 9.69993 25.1312 7.77998 24.3219C5.86004 23.5126 4.21298 22.1688 3.03477 20.4504C1.85656 18.732 1.1968 16.7113 1.13397 14.6287C1.07115 12.5461 1.60791 10.4893 2.68039 8.70298C3.75287 6.91666 5.31593 5.47604 7.1836 4.55249" stroke="#760EC8" stroke-width="2" stroke-linecap="round" stroke-linejoin="round"/>
<path d="M7.18363 10.6667C6.57814 11.4727 6.18395 12.4174 6.03697 13.4147C5.89 14.412 5.99491 15.4303 6.34215 16.3767C6.68938 17.3231 7.26791 18.1675 8.02502 18.8331C8.78213 19.4987 9.69376 19.9643 10.6768 20.1874C11.6599 20.4105 12.6832 20.3841 13.6535 20.1106C14.6237 19.837 15.5101 19.3251 16.2319 18.6213C16.9537 17.9175 17.4879 17.0444 17.7858 16.0813C18.0838 15.1183 18.136 14.096 17.9378 13.1076" stroke="#760EC8" stroke-width="2" stroke-linecap="round" stroke-linejoin="round"/>
</svg>
